<svg width="227" height="60" viewBox="0 0 227 60" fill="none" xmlns="http://www.w3.org/2000/svg">
<circle cx="27.5" cy="45.5" r="12.5" fill="#EB5E28"/>
<circle cx="12.5" cy="15.5" r="12.5" fill="#EB5E28"/>
<circle cx="42.5" cy="15.5" r="12.5" fill="#EB5E28"/>
<path d="M68.8988 43V18.232H84.2708V20.896H71.9948V29.716H82.9388V32.38H71.9948V43H68.8988ZM98.5423 43.288C96.6223 43.288 95.0263 43.192 93.7543 43C92.5063 42.784 91.5103 42.412 90.7663 41.884C90.0463 41.356 89.5183 40.624 89.1823 39.688C88.8463 38.728 88.6303 37.516 88.5343 36.052C88.4383 34.564 88.3903 32.752 88.3903 30.616C88.3903 28.48 88.4383 26.68 88.5343 25.216C88.6303 23.728 88.8463 22.516 89.1823 21.58C89.5183 20.62 90.0463 19.876 90.7663 19.348C91.5103 18.82 92.5063 18.46 93.7543 18.268C95.0263 18.052 96.6223 17.944 98.5423 17.944C100.462 17.944 102.046 18.052 103.294 18.268C104.566 18.46 105.562 18.82 106.282 19.348C107.026 19.876 107.566 20.62 107.902 21.58C108.238 22.516 108.454 23.728 108.55 25.216C108.646 26.68 108.694 28.48 108.694 30.616C108.694 32.752 108.646 34.564 108.55 36.052C108.454 37.516 108.238 38.728 107.902 39.688C107.566 40.624 107.026 41.356 106.282 41.884C105.562 42.412 104.566 42.784 103.294 43C102.046 43.192 100.462 43.288 98.5423 43.288ZM98.5423 40.624C99.8623 40.624 100.954 40.588 101.818 40.516C102.682 40.42 103.366 40.216 103.87 39.904C104.374 39.592 104.758 39.088 105.022 38.392C105.286 37.672 105.442 36.688 105.49 35.44C105.562 34.192 105.598 32.584 105.598 30.616C105.598 28.648 105.562 27.04 105.49 25.792C105.442 24.544 105.286 23.572 105.022 22.876C104.758 22.156 104.374 21.64 103.87 21.328C103.366 21.016 102.682 20.824 101.818 20.752C100.954 20.656 99.8623 20.608 98.5423 20.608C97.2223 20.608 96.1303 20.656 95.2663 20.752C94.4263 20.824 93.7423 21.016 93.2143 21.328C92.7103 21.64 92.3263 22.156 92.0623 22.876C91.8223 23.572 91.6663 24.544 91.5943 25.792C91.5223 27.04 91.4863 28.648 91.4863 30.616C91.4863 32.584 91.5223 34.192 91.5943 35.44C91.6663 36.688 91.8223 37.672 92.0623 38.392C92.3263 39.088 92.7103 39.592 93.2143 39.904C93.7423 40.216 94.4263 40.42 95.2663 40.516C96.1303 40.588 97.2223 40.624 98.5423 40.624ZM124.347 43.288C122.427 43.288 120.831 43.192 119.559 43C118.311 42.784 117.315 42.412 116.571 41.884C115.851 41.356 115.323 40.624 114.987 39.688C114.651 38.728 114.435 37.516 114.339 36.052C114.243 34.564 114.195 32.752 114.195 30.616C114.195 28.48 114.243 26.68 114.339 25.216C114.435 23.728 114.651 22.516 114.987 21.58C115.323 20.62 115.851 19.876 116.571 19.348C117.315 18.82 118.311 18.46 119.559 18.268C120.831 18.052 122.427 17.944 124.347 17.944C126.267 17.944 127.851 18.052 129.099 18.268C130.371 18.46 131.367 18.82 132.087 19.348C132.831 19.876 133.371 20.62 133.707 21.58C134.043 22.516 134.259 23.728 134.355 25.216C134.451 26.68 134.499 28.48 134.499 30.616C134.499 32.752 134.451 34.564 134.355 36.052C134.259 37.516 134.043 38.728 133.707 39.688C133.371 40.624 132.831 41.356 132.087 41.884C131.367 42.412 130.371 42.784 129.099 43C127.851 43.192 126.267 43.288 124.347 43.288ZM124.347 40.624C125.667 40.624 126.759 40.588 127.623 40.516C128.487 40.42 129.171 40.216 129.675 39.904C130.179 39.592 130.563 39.088 130.827 38.392C131.091 37.672 131.247 36.688 131.295 35.44C131.367 34.192 131.403 32.584 131.403 30.616C131.403 28.648 131.367 27.04 131.295 25.792C131.247 24.544 131.091 23.572 130.827 22.876C130.563 22.156 130.179 21.64 129.675 21.328C129.171 21.016 128.487 20.824 127.623 20.752C126.759 20.656 125.667 20.608 124.347 20.608C123.027 20.608 121.935 20.656 121.071 20.752C120.231 20.824 119.547 21.016 119.019 21.328C118.515 21.64 118.131 22.156 117.867 22.876C117.627 23.572 117.471 24.544 117.399 25.792C117.327 27.04 117.291 28.648 117.291 30.616C117.291 32.584 117.327 34.192 117.399 35.44C117.471 36.688 117.627 37.672 117.867 38.392C118.131 39.088 118.515 39.592 119.019 39.904C119.547 40.216 120.231 40.42 121.071 40.516C121.935 40.588 123.027 40.624 124.347 40.624ZM146.156 43V20.968H138.344V18.232H157.1V20.968H149.252V43H146.156ZM161.782 43V18.232H164.878V40.264H176.434V43H161.782ZM178.561 43L187.921 18.232H191.809L201.133 43H197.929L195.373 36.232H184.249L181.693 43H178.561ZM185.185 33.532H194.437L189.901 21.4H189.721L185.185 33.532ZM205.762 43V18.232H217.282C218.914 18.232 220.21 18.484 221.17 18.988C222.13 19.492 222.814 20.212 223.222 21.148C223.63 22.06 223.834 23.164 223.834 24.46C223.834 25.516 223.69 26.452 223.402 27.268C223.114 28.06 222.658 28.708 222.034 29.212C221.434 29.716 220.63 30.076 219.622 30.292V30.436C220.846 30.652 221.782 31.048 222.43 31.624C223.078 32.176 223.522 32.872 223.762 33.712C224.002 34.552 224.122 35.476 224.122 36.484C224.122 37.348 224.014 38.176 223.798 38.968C223.606 39.76 223.258 40.456 222.754 41.056C222.274 41.656 221.578 42.136 220.666 42.496C219.754 42.832 218.578 43 217.138 43H205.762ZM208.858 40.336H216.418C217.594 40.336 218.518 40.204 219.19 39.94C219.862 39.652 220.33 39.196 220.594 38.572C220.882 37.924 221.026 37.096 221.026 36.088C221.026 35.056 220.87 34.228 220.558 33.604C220.27 32.956 219.79 32.5 219.118 32.236C218.446 31.948 217.546 31.804 216.418 31.804H208.858V40.336ZM208.858 29.104H216.274C217.282 29.104 218.11 28.96 218.758 28.672C219.43 28.384 219.922 27.94 220.234 27.34C220.57 26.716 220.738 25.948 220.738 25.036C220.738 24.028 220.606 23.224 220.342 22.624C220.102 22.024 219.658 21.592 219.01 21.328C218.362 21.04 217.45 20.896 216.274 20.896H208.858V29.104Z" fill="#252422"/>
</svg>
